<?xml version="1.0" encoding="UTF-8"?>
<svg id="Capa_1" xmlns="http://www.w3.org/2000/svg" xmlns:xlink="http://www.w3.org/1999/xlink" version="1.1" viewBox="0 0 827.73 1000">
  <!-- Generator: Adobe Illustrator 30.0.0, SVG Export Plug-In . SVG Version: 2.1.1 Build 123)  -->
  <defs>
    <style>
      .st0, .st1 {
        isolation: isolate;
      }

      .st2 {
        fill: #fff;
      }

      .st1 {
        filter: url(#drop-shadow-1);
      }
    </style>
    <filter id="drop-shadow-1" x="102" y="364" width="622" height="255" filterUnits="userSpaceOnUse">
      <feOffset dx="0" dy="0"/>
      <feGaussianBlur result="blur" stdDeviation="5"/>
      <feFlood flood-color="#000" flood-opacity=".75"/>
      <feComposite in2="blur" operator="in"/>
      <feComposite in="SourceGraphic"/>
    </filter>
  </defs>
  <g class="st1">
    <g class="st0">
      <path class="st2" d="M117.88,408.72c0-16.8,12.9-28.82,30.26-28.82,9.63,0,17.68,3.5,22.93,9.87l-8.28,7.64c-3.74-4.3-8.44-6.53-14.01-6.53-10.43,0-17.83,7.33-17.83,17.83s7.4,17.83,17.83,17.83c5.57,0,10.27-2.23,14.01-6.61l8.28,7.64c-5.25,6.45-13.3,9.95-23.01,9.95-17.28,0-30.18-12.02-30.18-28.82v.02Z"/>
    </g>
    <g class="st0">
      <path class="st2" d="M175.44,408.72c0-16.56,12.9-28.82,30.49-28.82s30.49,12.18,30.49,28.82-12.98,28.82-30.49,28.82-30.49-12.26-30.49-28.82ZM223.38,408.72c0-10.59-7.48-17.83-17.44-17.83s-17.44,7.25-17.44,17.83,7.48,17.83,17.44,17.83,17.44-7.25,17.44-17.83Z"/>
      <path class="st2" d="M297.26,380.86v55.73h-10.59l-27.79-33.84v33.84h-12.74v-55.73h10.67l27.71,33.84v-33.84h12.74Z"/>
      <path class="st2" d="M306.1,431.1l4.38-9.71c4.7,3.42,11.7,5.81,18.39,5.81,7.64,0,10.75-2.55,10.75-5.97,0-10.43-32.41-3.26-32.41-23.96,0-9.48,7.64-17.36,23.49-17.36,7.01,0,14.17,1.67,19.35,4.94l-3.98,9.79c-5.18-2.95-10.51-4.38-15.45-4.38-7.64,0-10.59,2.87-10.59,6.37,0,10.27,32.41,3.19,32.41,23.65,0,9.32-7.72,17.28-23.65,17.28-8.84,0-17.76-2.63-22.69-6.45h0Z"/>
      <path class="st2" d="M360.8,412.07v-31.21h12.9v30.73c0,10.59,4.62,14.97,12.42,14.97s12.42-4.38,12.42-14.97v-30.73h12.74v31.21c0,16.4-9.4,25.48-25.24,25.48s-25.24-9.08-25.24-25.48h0Z"/>
      <path class="st2" d="M474.74,436.59l-.08-33.44-16.4,27.55h-5.81l-16.32-26.83v32.72h-12.1v-55.73h10.67l20.86,34.63,20.54-34.63h10.59l.16,55.73h-12.11Z"/>
      <path class="st2" d="M500.05,380.86h12.9v55.73h-12.9v-55.73h0Z"/>
      <path class="st2" d="M526.17,380.86h25.32c18.23,0,30.73,10.99,30.73,27.87s-12.5,27.87-30.73,27.87h-25.32v-55.73h0ZM550.85,426c11.07,0,18.31-6.61,18.31-17.28s-7.25-17.28-18.31-17.28h-11.78v34.55h11.78Z"/>
      <path class="st2" d="M588.43,408.72c0-16.56,12.9-28.82,30.5-28.82s30.49,12.18,30.49,28.82-12.98,28.82-30.49,28.82-30.5-12.26-30.5-28.82ZM636.36,408.72c0-10.59-7.48-17.83-17.44-17.83s-17.44,7.25-17.44,17.83,7.48,17.83,17.44,17.83,17.44-7.25,17.44-17.83Z"/>
      <path class="st2" d="M694.64,436.59l-10.75-15.53h-11.86v15.53h-12.9v-55.73h24.12c14.89,0,24.21,7.72,24.21,20.22,0,8.36-4.22,14.49-11.47,17.6l12.5,17.92h-13.85ZM682.54,391.37h-10.51v19.43h10.51c7.88,0,11.86-3.66,11.86-9.71s-3.98-9.71-11.86-9.71h0Z"/>
    </g>
    <g class="st0">
      <path class="st2" d="M164.49,498v34.26h60.01v24.08h-60.01v47.23h-30v-129.65h97.98v24.08h-67.98Z"/>
      <path class="st2" d="M252.83,473.92h30v129.65h-30v-129.65h0Z"/>
      <path class="st2" d="M432.48,473.92v129.65h-24.63l-64.64-78.71v78.71h-29.63v-129.65h24.82l64.45,78.72v-78.72h29.63,0Z"/>
      <path class="st2" d="M548.61,575.79h-60.19l-11.48,27.78h-30.75l57.79-129.65h29.63l57.97,129.65h-31.49l-11.48-27.78ZM539.16,553.01l-20.56-49.64-20.56,49.64h41.12Z"/>
      <path class="st2" d="M605.1,473.92h30v105.2h65.01v24.45h-95.01v-129.65Z"/>
    </g>
  </g>
</svg>