<?xml version="1.0" encoding="UTF-8"?>
<svg id="Capa_1" xmlns="http://www.w3.org/2000/svg" xmlns:xlink="http://www.w3.org/1999/xlink" version="1.1" viewBox="0 0 827.73 1000">
  <!-- Generator: Adobe Illustrator 30.0.0, SVG Export Plug-In . SVG Version: 2.1.1 Build 123)  -->
  <defs>
    <style>
      .st0, .st1 {
        isolation: isolate;
      }

      .st2 {
        fill: #fff;
      }

      .st1 {
        filter: url(#drop-shadow-1);
      }
    </style>
    <filter id="drop-shadow-1" x="58" y="384" width="710" height="219" filterUnits="userSpaceOnUse">
      <feOffset dx="0" dy="0"/>
      <feGaussianBlur result="blur" stdDeviation="5"/>
      <feFlood flood-color="#000" flood-opacity=".75"/>
      <feComposite in2="blur" operator="in"/>
      <feComposite in="SourceGraphic"/>
    </filter>
  </defs>
  <g class="st1">
    <g class="st0">
      <path class="st2" d="M73.6,443.32c0-16.8,12.9-28.82,30.26-28.82,9.63,0,17.68,3.5,22.93,9.87l-8.28,7.64c-3.74-4.3-8.44-6.53-14.01-6.53-10.43,0-17.83,7.33-17.83,17.83s7.4,17.83,17.83,17.83c5.57,0,10.27-2.23,14.01-6.61l8.28,7.64c-5.25,6.45-13.3,9.95-23.01,9.95-17.28,0-30.18-12.02-30.18-28.82v.02Z"/>
    </g>
    <g class="st0">
      <path class="st2" d="M131.17,443.32c0-16.56,12.9-28.82,30.49-28.82s30.49,12.18,30.49,28.82-12.98,28.82-30.49,28.82-30.49-12.26-30.49-28.82ZM179.11,443.32c0-10.59-7.48-17.83-17.44-17.83s-17.44,7.25-17.44,17.83,7.48,17.83,17.44,17.83,17.44-7.25,17.44-17.83Z"/>
      <path class="st2" d="M252.99,415.46v55.73h-10.59l-27.79-33.84v33.84h-12.74v-55.73h10.67l27.71,33.84v-33.84h12.74Z"/>
    </g>
    <g class="st0">
      <path class="st2" d="M261.83,465.7l4.38-9.71c4.7,3.42,11.7,5.81,18.39,5.81,7.64,0,10.75-2.55,10.75-5.97,0-10.43-32.41-3.26-32.41-23.96,0-9.48,7.64-17.36,23.49-17.36,7.01,0,14.17,1.67,19.35,4.94l-3.98,9.79c-5.18-2.95-10.51-4.38-15.45-4.38-7.64,0-10.59,2.87-10.59,6.37,0,10.27,32.41,3.19,32.41,23.65,0,9.32-7.72,17.28-23.65,17.28-8.84,0-17.76-2.63-22.69-6.45h0Z"/>
    </g>
    <g class="st0">
      <path class="st2" d="M328.47,425.97h-17.83v-10.51h48.57v10.51h-17.83v45.22h-12.9v-45.22h-.01Z"/>
      <path class="st2" d="M401.64,471.19l-10.75-15.53h-11.86v15.53h-12.9v-55.73h24.12c14.89,0,24.2,7.72,24.2,20.22,0,8.36-4.22,14.49-11.47,17.6l12.5,17.92h-13.85,0ZM389.54,425.97h-10.51v19.43h10.51c7.88,0,11.86-3.66,11.86-9.71s-3.98-9.71-11.86-9.71h0Z"/>
      <path class="st2" d="M424.18,446.67v-31.21h12.9v30.73c0,10.59,4.62,14.97,12.42,14.97s12.42-4.38,12.42-14.97v-30.73h12.74v31.21c0,16.4-9.39,25.48-25.24,25.48s-25.24-9.08-25.24-25.48h0Z"/>
    </g>
    <g class="st0">
      <path class="st2" d="M485.49,443.32c0-16.8,12.9-28.82,30.26-28.82,9.63,0,17.68,3.5,22.93,9.87l-8.28,7.64c-3.74-4.3-8.44-6.53-14.01-6.53-10.43,0-17.83,7.33-17.83,17.83s7.4,17.83,17.83,17.83c5.57,0,10.27-2.23,14.01-6.61l8.28,7.64c-5.25,6.45-13.3,9.95-23.01,9.95-17.28,0-30.18-12.02-30.18-28.82v.02Z"/>
    </g>
    <g class="st0">
      <path class="st2" d="M543.04,443.32c0-16.8,12.9-28.82,30.26-28.82,9.63,0,17.68,3.5,22.93,9.87l-8.28,7.64c-3.74-4.3-8.44-6.53-14.01-6.53-10.43,0-17.83,7.33-17.83,17.83s7.4,17.83,17.83,17.83c5.57,0,10.27-2.23,14.01-6.61l8.28,7.64c-5.25,6.45-13.3,9.95-23.01,9.95-17.28,0-30.18-12.02-30.18-28.82v.02Z"/>
      <path class="st2" d="M604.91,415.46h12.9v55.73h-12.9v-55.73Z"/>
      <path class="st2" d="M627.52,443.32c0-16.56,12.9-28.82,30.49-28.82s30.5,12.18,30.5,28.82-12.98,28.82-30.5,28.82-30.49-12.26-30.49-28.82ZM675.45,443.32c0-10.59-7.48-17.83-17.44-17.83s-17.44,7.25-17.44,17.83,7.48,17.83,17.44,17.83,17.44-7.25,17.44-17.83ZM661.52,399.45h13.38l-14.41,11.47h-9.71l10.75-11.47h-.01Z"/>
      <path class="st2" d="M749.34,415.46v55.73h-10.59l-27.79-33.84v33.84h-12.74v-55.73h10.67l27.71,33.84v-33.84h12.74Z"/>
    </g>
    <g class="st0">
      <path class="st2" d="M83.42,503.86h37.43c26.95,0,45.43,16.24,45.43,41.2s-18.48,41.2-45.43,41.2h-37.43v-82.39h0ZM119.91,570.59c16.36,0,27.07-9.77,27.07-25.54s-10.71-25.54-27.07-25.54h-17.42v51.08h17.42,0Z"/>
      <path class="st2" d="M244.44,570.95v15.3h-63.8v-82.39h62.27v15.3h-43.32v17.89h38.25v14.83h-38.25v19.07h44.85Z"/>
      <path class="st2" d="M367.9,586.25l-.12-49.44-24.25,40.73h-8.59l-24.13-39.67v48.38h-17.89v-82.39h15.77l30.84,51.2,30.37-51.2h15.65l.24,82.39h-17.89,0Z"/>
      <path class="st2" d="M459.59,568.59h-38.25l-7.3,17.66h-19.54l36.73-82.39h18.83l36.84,82.39h-20.01l-7.3-17.66ZM453.58,554.12l-13.07-31.54-13.07,31.54h26.14Z"/>
      <path class="st2" d="M547.98,586.25l-15.89-22.95h-17.54v22.95h-19.07v-82.39h35.67c22.01,0,35.78,11.42,35.78,29.9,0,12.36-6.24,21.42-16.95,26.01l18.48,26.48h-20.48,0ZM530.09,519.39h-15.54v28.72h15.54c11.65,0,17.54-5.42,17.54-14.36s-5.88-14.36-17.54-14.36Z"/>
    </g>
    <g class="st0">
      <path class="st2" d="M580.7,545.05c0-24.84,19.07-42.61,44.73-42.61,14.24,0,26.13,5.18,33.9,14.6l-12.24,11.3c-5.53-6.36-12.48-9.65-20.72-9.65-15.42,0-26.37,10.83-26.37,26.37s10.95,26.37,26.37,26.37c8.24,0,15.18-3.3,20.72-9.77l12.24,11.3c-7.77,9.53-19.66,14.71-34.02,14.71-25.54,0-44.61-17.77-44.61-42.61h0Z"/>
    </g>
    <g class="st0">
      <path class="st2" d="M725.59,568.59h-38.25l-7.3,17.66h-19.54l36.72-82.39h18.83l36.84,82.39h-20.01l-7.3-17.66h0ZM719.59,554.12l-13.07-31.54-13.06,31.54h26.13Z"/>
    </g>
  </g>
</svg>