<?xml version="1.0" encoding="UTF-8"?>
<svg id="Capa_1" xmlns="http://www.w3.org/2000/svg" xmlns:xlink="http://www.w3.org/1999/xlink" version="1.1" viewBox="0 0 827.73 1000">
  <!-- Generator: Adobe Illustrator 30.0.0, SVG Export Plug-In . SVG Version: 2.1.1 Build 123)  -->
  <defs>
    <style>
      .st0, .st1 {
        isolation: isolate;
      }

      .st2 {
        fill: #fff;
      }

      .st1 {
        filter: url(#drop-shadow-1);
      }
    </style>
    <filter id="drop-shadow-1" x="96" y="325" width="640" height="337" filterUnits="userSpaceOnUse">
      <feOffset dx="0" dy="0"/>
      <feGaussianBlur result="blur" stdDeviation="5"/>
      <feFlood flood-color="#000" flood-opacity=".75"/>
      <feComposite in2="blur" operator="in"/>
      <feComposite in="SourceGraphic"/>
    </filter>
  </defs>
  <g class="st1">
    <g class="st0">
      <path class="st2" d="M162.3,380.63c0,9.63-7.64,15.21-22.29,15.21h-28.82v-55.73h27.23c13.93,0,21.1,5.81,21.1,14.49,0,5.57-2.87,9.87-7.4,12.26,6.21,1.99,10.19,6.77,10.19,13.77h-.01ZM124.01,349.82v13.14h12.82c6.29,0,9.71-2.23,9.71-6.61s-3.42-6.53-9.71-6.53h-12.82ZM149.33,379.28c0-4.7-3.58-6.93-10.27-6.93h-15.05v13.77h15.05c6.69,0,10.27-2.07,10.27-6.85h0Z"/>
      <path class="st2" d="M172.1,340.11h12.9v45.22h27.95v10.51h-40.85v-55.73Z"/>
      <path class="st2" d="M220.19,340.11h12.9v55.73h-12.9v-55.73Z"/>
      <path class="st2" d="M297.42,340.11v55.73h-10.59l-27.79-33.84v33.84h-12.74v-55.73h10.67l27.71,33.84v-33.84h12.74Z"/>
    </g>
    <g class="st0">
      <path class="st2" d="M312.15,340.11h25.32c18.23,0,30.73,10.99,30.73,27.87s-12.5,27.87-30.73,27.87h-25.32v-55.73h0ZM336.83,385.25c11.07,0,18.31-6.61,18.31-17.28s-7.25-17.28-18.31-17.28h-11.78v34.55h11.78Z"/>
    </g>
    <g class="st0">
      <path class="st2" d="M413.82,383.9h-25.88l-4.94,11.94h-13.22l24.84-55.73h12.74l24.92,55.73h-13.54l-4.94-11.94h.02ZM409.76,374.1l-8.84-21.34-8.84,21.34h17.68Z"/>
    </g>
    <g class="st0">
      <path class="st2" d="M433.02,388.67l7.17-8.6c3.03,4.06,6.37,6.13,10.35,6.13,5.18,0,7.88-3.11,7.88-9.24v-26.51h-19.59v-10.35h32.41v36.15c0,13.77-6.93,20.54-20.06,20.54-7.48,0-14.09-2.87-18.15-8.12h-.01Z"/>
      <path class="st2" d="M527.13,385.49v10.35h-43.15v-55.73h42.12v10.35h-29.3v12.1h25.88v10.03h-25.88v12.9h30.34-.01Z"/>
      <path class="st2" d="M559.93,340.11h25.32c18.23,0,30.73,10.99,30.73,27.87s-12.5,27.87-30.73,27.87h-25.32v-55.73h0ZM584.61,385.25c11.07,0,18.31-6.61,18.31-17.28s-7.25-17.28-18.31-17.28h-11.78v34.55h11.78Z"/>
      <path class="st2" d="M668.85,385.49v10.35h-43.15v-55.73h42.12v10.35h-29.3v12.1h25.88v10.03h-25.88v12.9h30.33Z"/>
      <path class="st2" d="M679.12,340.11h12.9v45.22h27.95v10.51h-40.84v-55.73h-.01Z"/>
    </g>
    <g class="st0">
      <path class="st2" d="M171.34,514.36l-16.82-24.3h-18.57v24.3h-20.19v-87.23h37.76c23.3,0,37.88,12.09,37.88,31.65,0,13.08-6.6,22.68-17.95,27.54l19.57,28.04h-21.68ZM152.4,443.58h-16.45v30.41h16.45c12.34,0,18.57-5.73,18.57-15.2s-6.23-15.2-18.57-15.2h0Z"/>
    </g>
    <g class="st0">
      <path class="st2" d="M202.5,470.74c0-25.92,20.19-45.11,47.73-45.11s47.73,19.07,47.73,45.11-20.31,45.11-47.73,45.11-47.73-19.19-47.73-45.11ZM277.52,470.74c0-16.57-11.71-27.92-27.29-27.92s-27.29,11.34-27.29,27.92,11.71,27.91,27.29,27.91,27.29-11.34,27.29-27.91Z"/>
    </g>
    <g class="st0">
      <path class="st2" d="M369.62,495.67h-40.5l-7.73,18.69h-20.69l38.88-87.23h19.94l39.01,87.23h-21.19l-7.73-18.69h.01ZM363.27,480.34l-13.83-33.4-13.83,33.4h27.67-.01Z"/>
      <path class="st2" d="M407.63,427.13h39.63c28.54,0,48.1,17.2,48.1,43.62s-19.56,43.62-48.1,43.62h-39.63v-87.23h0ZM446.26,497.79c17.32,0,28.66-10.34,28.66-27.04s-11.34-27.04-28.66-27.04h-18.44v54.08h18.44Z"/>
    </g>
    <g class="st0">
      <path class="st2" d="M567.4,443.58h-27.92v-16.45h76.02v16.45h-27.92v70.78h-20.19v-70.78h0Z"/>
    </g>
    <g class="st0">
      <path class="st2" d="M621.73,470.74c0-25.92,20.19-45.11,47.73-45.11s47.73,19.07,47.73,45.11-20.31,45.11-47.73,45.11-47.73-19.19-47.73-45.11ZM696.75,470.74c0-16.57-11.71-27.92-27.29-27.92s-27.29,11.34-27.29,27.92,11.71,27.91,27.29,27.91,27.29-11.34,27.29-27.91Z"/>
    </g>
    <g class="st0">
      <path class="st2" d="M199.31,646.73l-.14-58.16-28.53,47.91h-10.11l-28.39-46.67v56.91h-21.05v-96.93h18.56l36.28,60.24,35.73-60.24h18.42l.28,96.93h-21.05,0Z"/>
      <path class="st2" d="M307.18,625.96h-45l-8.59,20.77h-22.99l43.2-96.93h22.16l43.34,96.93h-23.54l-8.59-20.77h.01ZM300.11,608.93l-15.37-37.11-15.37,37.11h30.74Z"/>
      <path class="st2" d="M411.17,646.73l-18.69-27h-20.63v27h-22.43v-96.93h41.96c25.89,0,42.1,13.43,42.1,35.17,0,14.54-7.34,25.2-19.94,30.6l21.74,31.16h-24.11ZM390.12,568.08h-18.28v33.79h18.28c13.71,0,20.63-6.37,20.63-16.89s-6.92-16.89-20.63-16.89h0Z"/>
      <path class="st2" d="M486.49,608.65l-13.02,13.57v24.51h-22.29v-96.93h22.29v45.28l42.93-45.28h24.93l-40.16,43.2,42.51,53.73h-26.17l-31.02-38.08h0Z"/>
      <path class="st2" d="M628.7,628.73v18h-75.05v-96.93h73.25v18h-50.96v21.05h45v17.45h-45v22.43h52.76Z"/>
      <path class="st2" d="M666.64,568.08h-31.02v-18.28h84.47v18.28h-31.02v78.65h-22.43v-78.65h0Z"/>
    </g>
  </g>
</svg>