<?xml version="1.0" encoding="UTF-8"?>
<svg id="Capa_1" xmlns="http://www.w3.org/2000/svg" version="1.1" viewBox="0 0 1920 1041.51">
  <!-- Generator: Adobe Illustrator 29.8.2, SVG Export Plug-In . SVG Version: 2.1.1 Build 3)  -->
  <path d="M414.81,837.65v-73.14h50.66v9.48h-40.01v22.08h31.18v9.09h-31.18v23.64h41.31v8.83h-51.96Z"/>
  <path d="M610.71,839.21c-3.98,0-7.84-.48-11.56-1.43-3.72-.95-7.12-2.42-10.2-4.42-3.08-1.99-5.52-4.57-7.34-7.73-1.82-3.16-2.73-6.95-2.73-11.36h10.91c0,.26.09.95.26,2.08.17,1.13.63,2.42,1.36,3.9.74,1.47,1.86,2.9,3.38,4.29,1.51,1.39,3.64,2.53,6.37,3.44,2.73.91,6.17,1.37,10.33,1.37,3.12,0,5.76-.35,7.92-1.04,2.16-.69,3.9-1.6,5.2-2.73,1.3-1.12,2.23-2.3,2.79-3.51.56-1.21.84-2.29.84-3.25.08-2.68-.74-4.85-2.47-6.49-1.73-1.65-4.03-2.97-6.89-3.96-2.86-.99-5.97-1.88-9.35-2.66-3.38-.78-6.75-1.69-10.13-2.73-3.38-1.04-6.48-2.36-9.29-3.96-2.81-1.6-5.02-3.74-6.62-6.43-1.6-2.68-2.32-6.06-2.14-10.13.26-3.98,1.64-7.4,4.16-10.26,2.51-2.86,5.98-5.07,10.39-6.63,4.42-1.56,9.44-2.34,15.07-2.34,5.11,0,9.81.91,14.1,2.73,4.29,1.82,7.75,4.55,10.39,8.19,2.64,3.64,3.92,8.19,3.83,13.64h-10.65c.09-2.94-.52-5.37-1.82-7.28-1.3-1.9-2.94-3.38-4.94-4.42-1.99-1.04-4.07-1.75-6.23-2.14-2.17-.39-4.11-.58-5.85-.58-4.85,0-8.86.91-12.02,2.73-3.16,1.82-4.79,4.33-4.87,7.54-.09,2.77.74,4.96,2.47,6.56,1.73,1.6,4.03,2.88,6.88,3.83,2.86.95,6.02,1.82,9.48,2.6,3.46.78,6.89,1.65,10.26,2.6,3.38.96,6.47,2.23,9.29,3.83,2.81,1.61,5.02,3.75,6.63,6.43,1.6,2.69,2.32,6.15,2.14,10.39-.17,4.07-1.56,7.54-4.16,10.39-2.6,2.86-6.06,5.07-10.39,6.63-4.33,1.56-9.27,2.34-14.81,2.34Z"/>
  <path d="M750.61,773.87v-9.35h55.86v9.35h-55.86ZM784,766.85v70.8h-10.91v-70.8h10.91Z"/>
  <path d="M950.54,839.47c-10.05,0-17.73-2.88-23.06-8.64-5.33-5.76-7.99-13.88-7.99-24.36v-41.96h11.3v41.83c0,4.24.54,7.82,1.63,10.72,1.08,2.9,2.53,5.24,4.35,7.01,1.82,1.77,3.92,3.07,6.3,3.9,2.38.82,4.87,1.24,7.47,1.24,3.9,0,7.32-.72,10.26-2.14,2.94-1.43,5.28-3.83,7.01-7.21,1.73-3.38,2.6-7.88,2.6-13.51v-41.83h11.3v41.96c0,10.65-2.62,18.82-7.86,24.49-5.24,5.68-13.01,8.51-23.32,8.51Z"/>
  <path d="M1160.14,823.43c-3.68,5.33-8.88,9.03-15.59,11.11-6.71,2.08-14.62,3.12-23.71,3.12h-19.74v-73.14h19.74c9.09,0,16.99,1.37,23.71,4.09,6.71,2.73,11.91,6.78,15.59,12.15,3.68,5.37,5.52,12.13,5.52,20.27,0,9.61-1.84,17.08-5.52,22.41ZM1119.68,828.56h4.03c4.68,0,8.87-.37,12.6-1.1s6.93-2.12,9.61-4.16c2.68-2.03,4.72-4.85,6.11-8.44,1.38-3.59,2.08-8.25,2.08-13.97,0-6.06-1.23-11.08-3.7-15.07-2.47-3.98-5.98-6.95-10.52-8.9-4.55-1.95-9.94-2.92-16.17-2.92h-11.82v54.56h7.79Z"/>
  <path d="M1281.8,773.87v-9.35h30.53v9.35h-30.53ZM1281.8,837.65v-9.35h30.53v9.35h-30.53ZM1291.8,835.31v-68.46h10.65v68.46h-10.65Z"/>
  <path d="M1463.41,839.47c-11.69,0-20.63-3.44-26.83-10.33-6.19-6.89-9.29-16.17-9.29-27.86,0-7.71,1.34-14.4,4.03-20.07,2.68-5.67,6.69-10.09,12.02-13.25,5.33-3.16,12.02-4.74,20.07-4.74,11.69,0,20.59,3.44,26.7,10.33,6.1,6.88,9.16,16.13,9.16,27.74,0,7.53-1.37,14.18-4.09,19.94-2.73,5.76-6.73,10.24-12.02,13.45-5.28,3.2-11.87,4.81-19.74,4.81ZM1463.28,829.08c5.63,0,10.31-1.19,14.03-3.57,3.72-2.38,6.54-5.67,8.44-9.87,1.9-4.2,2.86-8.98,2.86-14.35s-.93-10.28-2.79-14.48c-1.86-4.2-4.68-7.49-8.45-9.87-3.77-2.38-8.47-3.57-14.1-3.57-8.31,0-14.61,2.51-18.9,7.53-4.29,5.03-6.43,11.82-6.43,20.4,0,5.28.91,10.03,2.73,14.22,1.82,4.2,4.61,7.51,8.38,9.94,3.77,2.43,8.51,3.64,14.22,3.64Z"/>
  <path d="M206.08,350.82h105.35c8.95,0,13.28-4.04,13.28-10.68s-4.33-10.39-13.57-10.39h-47.91c-33.77,0-61.19-23.09-61.19-63.79,0-46.76,32.04-63.79,64.36-63.79h119.49v53.4h-103.04c-7.79,0-13.28,2.89-13.28,10.1s5.48,10.68,13.28,10.68h45.03c38.68,0,64.36,22.8,64.36,63.5,0,38.39-28.86,64.36-66.38,64.36h-120.65l.87-53.4Z"/>
  <path d="M639.58,202.18h67.54l80.24,105.06h2.02v-105.06h67.54v202.04h-67.54l-79.95-101.6h-2.31v101.6h-67.54v-202.04Z"/>
  <path d="M1018.25,383.73h-72.73l-5.48,20.49h-70.14l58.88-202.04h106.21l58.88,202.04h-70.14l-5.48-20.49ZM1003.82,329.75l-19.63-74.18h-4.62l-19.63,74.18h43.87Z"/>
  <path d="M1106.85,202.18h68.4l45.31,64.07h2.31l45.31-64.07h68.4v202.04h-67.54v-105.64h-1.73l-44.45,58.59h-2.31l-44.45-58.59h-1.73v105.64h-67.54v-202.04Z"/>
  <path d="M1068.29,550.65c7.5,10.39,12.12,23.67,12.12,37.81,0,40.41-25.11,64.07-66.1,64.07h-144.31v-202.04h144.31c40.98,0,66.1,23.38,66.1,63.79,0,13.57-4.62,26.26-12.12,36.37ZM937.54,503.32v21.94h66.96c6.35,0,10.97-4.33,10.97-11.26s-4.62-10.68-10.97-10.68h-66.96ZM1015.47,588.46c0-6.93-4.62-10.97-10.97-10.97h-66.96v22.22h66.96c6.35,0,10.97-4.33,10.97-11.26Z"/>
  <path d="M1103.49,561.62v-111.12h67.54v109.97c0,25.4,13.28,38.68,33.77,38.68s32.9-13.28,32.9-38.68v-109.97h67.54v111.12c0,68.12-47.91,93.8-101.88,93.8s-99.86-25.69-99.86-93.8Z"/>
  <path d="M1503.81,599.14v53.4h-172.6v-202.04h67.54v148.64h105.06Z"/>
  <path d="M1509.57,551.23c0-57.44,46.76-103.91,104.19-103.91s104.19,46.47,104.19,103.91-46.76,104.19-104.19,104.19-104.19-46.47-104.19-104.19ZM1651,551.23c0-20.49-16.74-37.23-37.23-37.23s-37.23,16.74-37.23,37.23,16.74,37.52,37.23,37.52,37.23-16.74,37.23-37.52Z"/>
  <polygon points="614.77 287.85 550.47 287.85 595.94 242.38 574.42 220.87 528.96 266.33 528.96 202.04 498.54 202.04 498.54 266.33 453.07 220.87 431.56 242.38 477.02 287.85 412.73 287.85 412.73 318.27 477.03 318.27 431.56 363.73 453.07 385.24 498.54 339.78 498.54 404.08 528.96 404.08 528.96 339.78 574.42 385.24 595.94 363.73 550.47 318.27 614.77 318.27 614.77 287.85"/>
</svg>