<?xml version="1.0" encoding="UTF-8"?>
<svg id="Capa_1" xmlns="http://www.w3.org/2000/svg" version="1.1" viewBox="0 0 1080 1261.08">
  <!-- Generator: Adobe Illustrator 29.8.2, SVG Export Plug-In . SVG Version: 2.1.1 Build 3)  -->
  <defs>
    <style>
      .st0 {
        fill: #d9ff03;
      }

      .st1 {
        fill: #fff;
      }
    </style>
  </defs>
  <polygon class="st0" points="858.71 673.09 221.29 673.09 221.29 769.08 424.14 769.08 280.7 912.51 348.57 980.38 492.01 836.95 492.01 1039.8 587.99 1039.8 587.99 836.95 731.43 980.38 799.3 912.51 655.86 769.08 858.71 769.08 858.71 673.09"/>
  <g>
    <path class="st1" d="M227.12,364.45h101.47c8.62,0,12.79-3.89,12.79-10.29s-4.17-10.01-13.07-10.01h-46.15c-32.53,0-58.94-22.24-58.94-61.44,0-45.04,30.86-61.44,61.99-61.44h115.09v51.43h-99.24c-7.51,0-12.79,2.78-12.79,9.73s5.28,10.29,12.79,10.29h43.37c37.25,0,61.99,21.96,61.99,61.16,0,36.97-27.8,61.99-63.94,61.99h-116.2l.83-51.43Z"/>
    <path class="st1" d="M427.28,221.29h65.05l77.28,101.19h1.95v-101.19h65.05v194.6h-65.05l-77-97.85h-2.22v97.85h-65.05v-194.6Z"/>
    <path class="st1" d="M221.29,444.74h65.89l43.65,61.72h2.22l43.65-61.72h65.89v194.6h-65.05v-101.75h-1.67l-42.81,56.43h-2.22l-42.81-56.43h-1.67v101.75h-65.05v-194.6Z"/>
    <path class="st1" d="M658.56,541.2c7.23,10.01,11.68,22.8,11.68,36.42,0,38.92-24.19,61.72-63.66,61.72h-139v-194.6h139c39.48,0,63.66,22.52,63.66,61.44,0,13.07-4.45,25.3-11.68,35.03ZM532.63,495.61v21.13h64.5c6.12,0,10.56-4.17,10.56-10.84s-4.45-10.29-10.56-10.29h-64.5ZM607.69,577.62c0-6.67-4.45-10.56-10.56-10.56h-64.5v21.41h64.5c6.12,0,10.56-4.17,10.56-10.84Z"/>
    <path class="st1" d="M858.71,587.91v51.43h-166.24v-194.6h65.05v143.17h101.19Z"/>
  </g>
</svg>